# xmcd
#
# Track frame offsets:
#	150
#	13037
#	33426
#	47507
#	58826
#	81962
#	95800
#	106121
#	124282
#	143639
#	163201
#
# Disc length: 2232 seconds
# Revision: 1
# Processed by: cddbd v1.5.2PL0 Copyright (c) Steve Scherf et al.
# Submitted via: dBpowerAMP V12.0
#
DISCID=9308b60b
DTITLE=Kitty Rose - Greatest Hits
DYEAR=2005
DGENRE=Country
TTITLE0=Travelin'
TTITLE1=James Gang Waltz
TTITLE2=Your Way
TTITLE3=Your Good Girl's Gonna Go Bad
TTITLE4=Blown Away (Concrete)
TTITLE5=Is It Hot Down There?
TTITLE6=Walkin' After Midnight
TTITLE7=Hurricane
TTITLE8=Swing Shift
TTITLE9=Move It On Over
TTITLE10='Til The Cows Come Home
EXTD=
EXTT0=
EXTT1=
EXTT2=
EXTT3=
EXTT4=
EXTT5=
EXTT6=
EXTT7=
EXTT8=
EXTT9=
EXTT10=
PLAYORDER=
